<svg width="120" height="120" viewBox="0 0 120 120" fill="none" xmlns="http://www.w3.org/2000/svg">
    <g clip-path="url(#clip0_1249_227)">
        <path
            d="M44.3218 111.228C43.2233 112.525 41.6694 110.984 42.0957 109.188L50.1751 75.2052C50.4866 73.9583 50.4136 72.6464 49.9657 71.4419C49.5178 70.2373 48.7159 69.1964 47.6654 68.4561L29.7936 56.7394C29.3278 56.3461 29.0356 55.7852 28.9803 55.178C28.9249 54.5709 29.1109 53.9663 29.4978 53.4952L69.2485 8.73758C70.3679 7.47336 71.9506 9.10789 71.4128 10.9327L61.6555 44.0073C61.2536 45.2886 61.27 46.6646 61.7022 47.936C62.1344 49.2074 62.9601 50.3082 64.0597 51.0791L81.9315 62.8948C82.3903 63.2825 82.6804 63.8333 82.7407 64.4309C82.8009 65.0285 82.6265 65.6262 82.2542 66.0976L44.3218 111.228Z"
            fill="#DCA1A1" />
        <path
            d="M107.586 86.895C107.586 90.3229 104.807 93.1019 101.379 93.1019H64.9655L85.4337 68.7522C86.0111 68.0518 86.4339 67.2371 86.6743 66.3617C86.9146 65.4863 86.9671 64.57 86.8282 63.6729C86.7173 62.8231 86.4281 62.0063 85.9796 61.2761C85.531 60.5459 84.9333 59.9187 84.2255 59.4356L66.3455 47.628C65.9954 47.3377 65.7403 46.9492 65.613 46.5126C65.4858 46.076 65.4923 45.6112 65.6316 45.1783L71.0191 26.895H101.379C104.807 26.895 107.586 29.6739 107.586 33.1019V86.895ZM120 70.3432C120 70.8919 119.782 71.4182 119.394 71.8062C119.006 72.1942 118.48 72.4122 117.931 72.4122H111.724V47.5846H117.931C118.48 47.5846 119.006 47.8026 119.394 48.1907C119.782 48.5787 120 49.105 120 49.6537L120 70.3432ZM41.6691 93.1019L40.676 97.2398H26.8966C26.3479 97.2398 25.8216 97.0218 25.4336 96.6338C25.0456 96.2458 24.8276 95.7195 24.8276 95.1707C24.8276 94.622 25.0456 94.0957 25.4336 93.7077C25.8216 93.3197 26.3479 93.1017 26.8966 93.1017H41.6691V93.1019ZM18.6206 97.2398H12.4139C11.8652 97.2398 11.3389 97.0218 10.9509 96.6338C10.5628 96.2458 10.3448 95.7195 10.3448 95.1707C10.3448 94.622 10.5628 94.0957 10.9509 93.7077C11.3389 93.3197 11.8652 93.1017 12.4139 93.1017H18.6209C19.1696 93.1017 19.6959 93.3197 20.0839 93.7078C20.4719 94.0958 20.6898 94.6221 20.6898 95.1709C20.6898 95.7196 20.4718 96.2459 20.0837 96.6339C19.6957 97.0219 19.1694 97.2398 18.6206 97.2398ZM30.3518 62.0674H2.06906C1.52031 62.0674 0.994039 61.8494 0.606014 61.4614C0.21799 61.0733 0 60.5471 0 59.9983C0 59.4496 0.21799 58.9233 0.606014 58.5353C0.994039 58.1472 1.52031 57.9293 2.06906 57.9293H25.5312C25.9774 58.852 26.6634 59.638 27.5173 60.205L30.3518 62.0674ZM51.2691 22.7571L47.607 26.895H31.0345C30.4858 26.895 29.9595 26.677 29.5715 26.2889C29.1835 25.9009 28.9655 25.3746 28.9655 24.8259C28.9655 24.2771 29.1835 23.7509 29.5715 23.3629C29.9595 22.9748 30.4858 22.7568 31.0345 22.7568L51.2691 22.7571ZM22.7585 26.895H16.5518C16.003 26.895 15.4768 26.677 15.0887 26.2889C14.7007 25.9009 14.4827 25.3746 14.4827 24.8259C14.4827 24.2771 14.7007 23.7509 15.0887 23.3629C15.4768 22.9748 16.003 22.7568 16.5518 22.7568H22.7587C23.3075 22.7569 23.8338 22.9749 24.2218 23.3629C24.6098 23.751 24.8277 24.2773 24.8277 24.826C24.8277 25.3748 24.6096 25.901 24.2216 26.289C23.8336 26.677 23.3073 26.895 22.7585 26.895ZM40.2415 35.1707L36.5587 39.3086H6.20695C5.6582 39.3086 5.13193 39.0906 4.74391 38.7026C4.35588 38.3146 4.13789 37.7883 4.13789 37.2396C4.13789 36.6908 4.35588 36.1645 4.74391 35.7765C5.13193 35.3885 5.6582 35.1705 6.20695 35.1705H40.2415V35.1707ZM31.0552 45.5156L27.3724 49.6535H22.7585C22.2098 49.6535 21.6835 49.4355 21.2955 49.0475C20.9074 48.6594 20.6895 48.1332 20.6895 47.5844C20.6895 47.0357 20.9074 46.5094 21.2955 46.1214C21.6835 45.7333 22.2098 45.5154 22.7585 45.5154H31.0552V45.5156ZM14.4827 49.6535H10.3448C9.79609 49.6535 9.26982 49.4355 8.8818 49.0475C8.49377 48.6594 8.27578 48.1332 8.27578 47.5844C8.27578 47.0357 8.49377 46.5094 8.8818 46.1214C9.26982 45.7333 9.79609 45.5154 10.3448 45.5154H14.4827C15.0315 45.5154 15.5578 45.7333 15.9458 46.1214C16.3338 46.5094 16.5518 47.0357 16.5518 47.5844C16.5518 48.1332 16.3338 48.6594 15.9458 49.0475C15.5578 49.4355 15.0315 49.6535 14.4827 49.6535ZM44.6276 80.688L43.6345 84.8259H4.13789C3.58914 84.8259 3.06287 84.6079 2.67484 84.2199C2.28682 83.8319 2.06883 83.3056 2.06883 82.7568C2.06883 82.2081 2.28682 81.6818 2.67484 81.2938C3.06287 80.9058 3.58914 80.6878 4.13789 80.6878H44.6276V80.688ZM46.1585 74.2535L46.0964 74.4811H28.9655C28.4167 74.4811 27.8904 74.2631 27.5024 73.875C27.1144 73.487 26.8964 72.9607 26.8964 72.412C26.8964 71.8632 27.1144 71.337 27.5024 70.9489C27.8904 70.5609 28.4167 70.3429 28.9655 70.3429H42.993L45.393 71.9154C45.7288 72.1927 45.979 72.5596 46.1145 72.9735C46.25 73.3874 46.2653 73.8313 46.1585 74.2535ZM20.6897 74.4813H12.4139C11.8652 74.4813 11.3389 74.2633 10.9509 73.8753C10.5628 73.4873 10.3448 72.961 10.3448 72.4122C10.3448 71.8635 10.5628 71.3372 10.9509 70.9492C11.3389 70.5612 11.8652 70.3432 12.4139 70.3432H20.6897C21.2384 70.3432 21.7647 70.5612 22.1527 70.9492C22.5408 71.3372 22.7587 71.8635 22.7587 72.4122C22.7587 72.961 22.5408 73.4873 22.1527 73.8753C21.7647 74.2633 21.2384 74.4813 20.6897 74.4813Z"
            fill="#DCA1A1" />
    </g>
    <defs>
        <clipPath id="clip0_1249_227">
            <rect width="120" height="120" fill="#DCA1A1" />
        </clipPath>
    </defs>
</svg>
    