<svg width="120" height="120" viewBox="0 0 120 120" fill="none" xmlns="http://www.w3.org/2000/svg">
    <g clip-path="url(#clip0_1249_223)">
        <path
            d="M60 0C26.9262 0 0 26.9262 0 60C0 93.0738 26.9262 120 60 120C93.0738 120 120 93.0738 120 60C120 26.9262 93.0738 0 60 0ZM60 101.754C36.959 101.754 18.2459 83.0164 18.2459 59.9754C18.2459 36.9344 36.9836 18.2213 60 18.2213C83.041 18.2213 101.779 36.959 101.779 59.9754C101.754 83.041 83.041 101.754 60 101.754ZM84.1229 56.7787C84.2705 57.8361 84.3689 58.8934 84.3689 60C84.3689 73.4508 73.4508 84.3689 60 84.3689C46.5492 84.3689 35.6311 73.4508 35.6311 60C35.6311 46.5492 46.5492 35.6311 60 35.6311C61.082 35.6311 62.1639 35.7295 63.2213 35.877C60.8852 38.5082 59.4344 41.9508 59.4344 45.7377C59.4344 53.9262 66.0738 60.5656 74.2623 60.5656C78.0492 60.5656 81.5164 59.1393 84.1229 56.7787Z"
            fill="#DCA1A1" />
    </g>
    <defs>
        <clipPath id="clip0_1249_223">
            <rect width="120" height="120" fill="#DCA1A1" />
        </clipPath>
    </defs>
</svg>
    