<svg width="120" height="120" viewBox="0 0 120 120" fill="none" xmlns="http://www.w3.org/2000/svg">
    <g clip-path="url(#clip0_1249_217)">
        <path
            d="M0.655783 109.903C0.448319 110.099 0.283137 110.336 0.170369 110.598C0.0576019 110.86 -0.000372696 111.143 1.80284e-06 111.429C1.80284e-06 111.997 0.22577 112.542 0.62764 112.944C1.02951 113.346 1.57456 113.572 2.14289 113.572H47.3358C47.0787 112.155 47.0787 110.703 47.3358 109.286H2.14289C1.8662 109.283 1.5918 109.336 1.33623 109.442C1.08065 109.548 0.849191 109.705 0.655783 109.903ZM117.857 109.286H72.6642C72.9213 110.703 72.9213 112.155 72.6642 113.572H117.857C118.134 113.574 118.408 113.521 118.664 113.415C118.919 113.309 119.151 113.152 119.344 112.954C119.552 112.758 119.717 112.522 119.83 112.259C119.942 111.997 120 111.714 120 111.429C120 111.147 119.945 110.869 119.837 110.609C119.729 110.349 119.571 110.112 119.372 109.913C119.173 109.714 118.937 109.556 118.677 109.449C118.417 109.341 118.139 109.286 117.857 109.286Z"
            fill="#DCA1A1" />
        <path
            d="M60 120C64.7339 120 68.5714 116.163 68.5714 111.429C68.5714 106.695 64.7339 102.857 60 102.857C55.2662 102.857 51.4287 106.695 51.4287 111.429C51.4287 116.163 55.2662 120 60 120Z"
            fill="#DCA1A1" />
        <path
            d="M83.5716 47.1429C83.5716 34.1248 73.0184 23.5716 60.0003 23.5716C46.9822 23.5716 36.429 34.1248 36.429 47.1429C36.429 60.161 46.9822 70.7142 60.0003 70.7142C73.0121 70.699 83.5564 60.1547 83.5716 47.1429ZM52.5624 34.1208C45.6317 38.1506 43.0034 46.8581 46.5474 54.0495C46.7743 54.5664 46.7881 55.1519 46.5858 55.6789C46.3835 56.206 45.9814 56.6319 45.4669 56.8642C44.9524 57.0965 44.367 57.1164 43.8379 56.9196C43.3088 56.7228 42.8787 56.3252 42.6411 55.8131C38.157 46.6127 41.5592 35.5113 50.4282 30.4031C50.6723 30.2624 50.9418 30.1712 51.2212 30.1346C51.5005 30.098 51.7844 30.1168 52.0565 30.19C52.3286 30.2631 52.5837 30.3891 52.8071 30.5608C53.0305 30.7325 53.2179 30.9465 53.3586 31.1906C53.4993 31.4347 53.5905 31.7042 53.6271 31.9836C53.6637 32.263 53.6449 32.5468 53.5717 32.8189C53.4986 33.091 53.3726 33.3461 53.2009 33.5695C53.0292 33.7929 52.8152 33.9803 52.5711 34.121L52.5624 34.1208ZM60.0003 32.1429C59.432 32.1429 58.8869 31.9171 58.4851 31.5153C58.0832 31.1134 57.8574 30.5683 57.8574 30C57.8574 29.4317 58.0832 28.8866 58.4851 28.4847C58.8869 28.0829 59.432 27.8571 60.0003 27.8571C60.5686 27.8571 61.1137 28.0829 61.5156 28.4847C61.9174 28.8866 62.1432 29.4317 62.1432 30C62.1432 30.5683 61.9174 31.1134 61.5156 31.5153C61.1137 31.9171 60.5686 32.1429 60.0003 32.1429ZM62.1432 10.7142V2.14289C62.1432 1.57456 61.9174 1.02951 61.5156 0.627638C61.1137 0.225768 60.5686 0 60.0003 0C59.432 0 58.8869 0.225768 58.4851 0.627638C58.0832 1.02951 57.8574 1.57456 57.8574 2.14289V10.7142C57.8574 11.2825 58.0832 11.8276 58.4851 12.2295C58.8869 12.6313 59.432 12.8571 60.0003 12.8571C60.5686 12.8571 61.1137 12.6313 61.5156 12.2295C61.9174 11.8276 62.1432 11.2825 62.1432 10.7142ZM62.1432 92.1429V83.5716C62.1432 83.0032 61.9174 82.4582 61.5156 82.0563C61.1137 81.6544 60.5686 81.4287 60.0003 81.4287C59.432 81.4287 58.8869 81.6544 58.4851 82.0563C58.0832 82.4582 57.8574 83.0032 57.8574 83.5716V92.1429C57.8574 92.7112 58.0832 93.2563 58.4851 93.6581C58.8869 94.06 59.432 94.2858 60.0003 94.2858C60.5686 94.2858 61.1137 94.06 61.5156 93.6581C61.9174 93.2563 62.1432 92.7112 62.1432 92.1429ZM107.143 47.1429C107.143 46.5746 106.917 46.0295 106.516 45.6276C106.114 45.2258 105.569 45 105 45H96.429C95.8607 45 95.3156 45.2258 94.9137 45.6276C94.5119 46.0295 94.2861 46.5746 94.2861 47.1429C94.2861 47.7112 94.5119 48.2563 94.9137 48.6581C95.3156 49.06 95.8607 49.2858 96.429 49.2858H105C105.569 49.2857 106.114 49.0599 106.515 48.6581C106.917 48.2562 107.143 47.7112 107.143 47.1429ZM12.8574 47.1429C12.8574 47.7112 13.0832 48.2563 13.4851 48.6581C13.8869 49.06 14.432 49.2858 15.0003 49.2858H23.5716C24.14 49.2858 24.685 49.06 25.0869 48.6581C25.4888 48.2563 25.7145 47.7112 25.7145 47.1429C25.7145 46.5746 25.4888 46.0295 25.0869 45.6276C24.685 45.2258 24.14 45 23.5716 45H15.0003C14.432 45 13.8869 45.2258 13.4851 45.6276C13.0832 46.0295 12.8574 46.5746 12.8574 47.1429ZM27.3795 63.5013L19.9566 67.7871C19.7099 67.9262 19.4931 68.1128 19.3189 68.3362C19.1447 68.5596 19.0165 68.8154 18.9418 69.0886C18.8671 69.3619 18.8473 69.6472 18.8835 69.9282C18.9198 70.2091 19.0114 70.4801 19.153 70.7254C19.2947 70.9707 19.4836 71.1855 19.7088 71.3574C19.934 71.5293 20.191 71.6548 20.465 71.7267C20.739 71.7985 21.0246 71.8154 21.3051 71.7762C21.5857 71.737 21.8557 71.6426 22.0995 71.4984L29.5224 67.2127C29.7692 67.0736 29.986 66.8869 30.1602 66.6635C30.3343 66.4401 30.4625 66.1844 30.5372 65.9112C30.612 65.6379 30.6318 65.3526 30.5955 65.0716C30.5593 64.7907 30.4677 64.5197 30.326 64.2744C30.1844 64.029 29.9955 63.8142 29.7703 63.6424C29.5451 63.4705 29.2881 63.345 29.0141 63.2731C28.74 63.2012 28.4545 63.1844 28.1739 63.2236C27.8934 63.2627 27.6234 63.3571 27.3795 63.5013ZM97.9011 22.7871L90.4782 27.0729C90.2314 27.212 90.0147 27.3986 89.8405 27.622C89.6663 27.8454 89.5381 28.1011 89.4634 28.3744C89.3886 28.6476 89.3688 28.933 89.4051 29.2139C89.4413 29.4949 89.533 29.7659 89.6746 30.0112C89.8162 30.2565 90.0051 30.4713 90.2303 30.6432C90.4555 30.815 90.7126 30.9405 90.9866 31.0124C91.2606 31.0843 91.5461 31.1012 91.8267 31.062C92.1072 31.0228 92.3773 30.9284 92.6211 30.7842L100.044 26.4984C100.53 26.2111 100.883 25.7437 101.026 25.1977C101.169 24.6517 101.091 24.0712 100.809 23.5824C100.527 23.0936 100.063 22.7358 99.5186 22.5869C98.9741 22.438 98.3928 22.51 97.9011 22.7871ZM39.9303 16.665C40.0694 16.9118 40.256 17.1285 40.4794 17.3027C40.7028 17.4769 40.9586 17.6051 41.2318 17.6798C41.5051 17.7546 41.7904 17.7744 42.0714 17.7381C42.3523 17.7019 42.6233 17.6103 42.8686 17.4686C43.1139 17.327 43.3287 17.1381 43.5006 16.9129C43.6725 16.6877 43.798 16.4306 43.8699 16.1566C43.9417 15.8826 43.9586 15.5971 43.9194 15.3165C43.8802 15.036 43.7858 14.7659 43.6416 14.5221L39.3561 7.09922C39.0673 6.61622 38.6002 6.26617 38.0555 6.12467C37.5109 5.98317 36.9324 6.06157 36.4451 6.34294C35.9577 6.62431 35.6006 7.08607 35.4508 7.62851C35.301 8.17095 35.3706 8.75054 35.6445 9.24211L39.9303 16.665ZM80.6445 87.1863C80.9333 87.6693 81.4004 88.0194 81.9451 88.1609C82.4898 88.3024 83.0682 88.224 83.5556 87.9426C84.0429 87.6612 84.4 87.1995 84.5498 86.657C84.6996 86.1146 84.63 85.535 84.3561 85.0434L80.0703 77.6205C79.9312 77.3738 79.7446 77.157 79.5212 76.9828C79.2978 76.8086 79.0421 76.6805 78.7688 76.6057C78.4956 76.531 78.2102 76.5112 77.9293 76.5474C77.6483 76.5837 77.3773 76.6753 77.132 76.8169C76.8867 76.9586 76.6719 77.1475 76.5 77.3727C76.3282 77.5979 76.2027 77.8549 76.1308 78.1289C76.0589 78.4029 76.042 78.6885 76.0812 78.969C76.1204 79.2496 76.2148 79.5196 76.359 79.7634L80.6445 87.1863ZM92.6211 63.5013C92.2952 63.3104 91.9246 63.2089 91.5469 63.2073C91.1692 63.2056 90.7978 63.3038 90.4702 63.492C90.1427 63.6801 89.8707 63.9514 89.6817 64.2785C89.4928 64.6056 89.3937 64.9768 89.3945 65.3545C89.3953 65.7323 89.496 66.1031 89.6863 66.4294C89.8766 66.7557 90.1498 67.0259 90.4782 67.2127L97.9011 71.4984C98.393 71.7781 98.9756 71.8519 99.5217 71.7036C100.068 71.5553 100.533 71.197 100.816 70.707C101.099 70.2169 101.177 69.6348 101.032 69.0878C100.887 68.5407 100.532 68.0731 100.044 67.7869L92.6211 63.5013ZM29.5224 27.0729L22.0995 22.7871C21.6076 22.5074 21.025 22.4337 20.4789 22.582C19.9328 22.7303 19.4675 23.0885 19.1846 23.5786C18.9017 24.0686 18.8241 24.6507 18.9687 25.1978C19.1133 25.7448 19.4685 26.2125 19.9566 26.4987L27.3795 30.7845C27.6235 30.9303 27.8939 31.0261 28.1752 31.0664C28.4566 31.1068 28.7431 31.0907 29.0181 31.0193C29.2932 30.9478 29.5513 30.8224 29.7774 30.6502C30.0035 30.4781 30.1932 30.2627 30.3352 30.0166C30.4773 29.7705 30.5691 29.4985 30.6051 29.2166C30.6411 28.9347 30.6207 28.6485 30.5451 28.3746C30.4694 28.1006 30.3401 27.8445 30.1645 27.621C29.9889 27.3975 29.7707 27.2112 29.5224 27.0729ZM83.5716 6.315C83.0795 6.03087 82.4946 5.95386 81.9457 6.10093C81.3968 6.248 80.9287 6.60709 80.6445 7.09922L76.3587 14.5221C76.1678 14.848 76.0663 15.2186 76.0647 15.5963C76.063 15.974 76.1613 16.3455 76.3494 16.673C76.5375 17.0005 76.8089 17.2725 77.1359 17.4615C77.463 17.6504 77.8342 17.7495 78.212 17.7487C78.5897 17.7479 78.9605 17.6472 79.2869 17.4569C79.6132 17.2666 79.8834 16.9934 80.0701 16.665L84.3559 9.24211C84.4966 8.99842 84.5879 8.72941 84.6247 8.45042C84.6614 8.17143 84.6428 7.88794 84.57 7.61613C84.4972 7.34431 84.3716 7.08951 84.2002 6.86626C84.0289 6.64301 83.8153 6.45569 83.5716 6.315ZM36.429 87.9708C36.9211 88.2549 37.506 88.3319 38.0549 88.1849C38.6039 88.0378 39.0719 87.6787 39.3561 87.1866L43.6419 79.7637C43.8328 79.4378 43.9343 79.0672 43.9359 78.6895C43.9376 78.3118 43.8394 77.9403 43.6512 77.6128C43.4631 77.2852 43.1918 77.0132 42.8647 76.8243C42.5376 76.6354 42.1664 76.5363 41.7887 76.537C41.4109 76.5379 41.0401 76.6385 40.7138 76.8289C40.3875 77.0192 40.1173 77.2924 39.9305 77.6208L35.6448 85.0437C35.504 85.2874 35.4127 85.5564 35.376 85.8354C35.3392 86.1144 35.3578 86.3978 35.4306 86.6697C35.5034 86.9415 35.6291 87.1963 35.8004 87.4195C35.9717 87.6428 36.1853 87.8301 36.429 87.9708Z"
            fill="#DCA1A1" />
    </g>
    <defs>
        <clipPath id="clip0_1249_217">
            <rect width="120" height="120" fill="#DCA1A1" />
        </clipPath>
    </defs>
</svg>