<svg width="104" height="100" viewBox="0 0 104 100" fill="none" xmlns="http://www.w3.org/2000/svg">
<path fill-rule="evenodd" clip-rule="evenodd" d="M101.759 1.01807C99.3178 2.27221 97.7943 2.8508 95.2508 3.49022C90.7605 4.61889 85.1188 4.99652 78.1917 4.63194C74.1008 4.41652 72.2351 4.2238 59.5885 2.71007C52.006 1.80244 46.2607 1.53101 40.2813 1.79822C37.7925 1.90924 34.8512 2.13951 33.7451 2.30996C20.6273 4.3302 11.891 9.9364 7.00668 19.468C3.33471 26.6339 2.18653 35.2194 3.9646 42.2161C7.37292 55.6282 20.7262 65.6694 39.6446 69.0459C42.161 69.495 45.1081 69.7888 45.1081 69.5906C45.1081 69.5205 44.2711 69.0437 43.2478 68.531C40.6582 67.2331 39.2203 66.2223 37.4504 64.4556C33.2045 60.2172 31.1241 54.5786 31.5278 48.4021C32.0686 40.1242 37.154 33.3917 46.3398 28.7931C51.8978 26.0106 56.4656 24.5155 70.1471 21.0012C85.4705 17.0654 90.7295 15.213 95.5883 12.0404C97.8822 10.5425 100.796 7.65537 101.877 5.80839C103.078 3.75623 104.386 -0.0104178 103.893 2.16548e-05C103.805 0.00182849 102.845 0.459961 101.759 1.01807ZM60.7483 31.2038C63.5016 32.6501 65.0251 33.7635 66.7933 35.6215C69.2304 38.1828 70.7285 40.7937 71.7773 44.3074C72.5287 46.8245 72.6797 51.4309 72.1017 54.2016C70.5793 61.4996 65.8422 66.9305 57.2525 71.2256C52.2512 73.7262 45.8336 75.7931 33.4434 78.8928C22.7114 81.5777 15.6816 83.8347 11.4503 85.9537C7.92237 87.7206 4.30207 90.7565 2.47956 93.4765C1.40801 95.0758 0.319976 97.6696 0.125094 99.0894L0 100L2.17246 98.883C7.76429 96.0079 13.5106 95.0073 23.1865 95.2235C28.6293 95.345 30.2979 95.4976 43.1975 97.0515C51.4366 98.044 53.163 98.1635 59.2868 98.1651C66.7872 98.1671 70.7472 97.7567 75.9795 96.4355C80.1621 95.3795 84.6453 93.3611 87.8827 91.0767C90.1429 89.4818 93.1296 86.4961 94.7536 84.2077C97.2449 80.6976 99.2904 75.7967 100.253 71.0321C100.639 69.1176 100.713 68.1198 100.715 64.7415C100.717 60.3021 100.555 59.1286 99.4911 55.8555C95.7327 44.2961 84.3716 35.5079 68.0354 31.523C65.4546 30.8935 60.6403 30.1101 59.3874 30.1159C58.7486 30.1187 58.8745 30.2195 60.7483 31.2038Z" fill="white"/>
</svg>
